<?xml version="1.0" encoding="UTF-8"?>
<svg viewBox="0 0 820 440" xmlns="http://www.w3.org/2000/svg" font-family="ui-monospace,SFMono-Regular,Menlo,monospace" font-size="12">
<line x1="60" y1="404" x2="800" y2="404" stroke="currentColor" stroke-opacity="0.35"/>
<line x1="60" y1="404" x2="60" y2="16" stroke="currentColor" stroke-opacity="0.35"/>
<line x1="60" y1="404.0" x2="800" y2="404.0" stroke="currentColor" stroke-opacity="0.08"/>
<text x="52" y="408.0" text-anchor="end" fill="currentColor">0.00</text>
<line x1="60" y1="307.0" x2="800" y2="307.0" stroke="currentColor" stroke-opacity="0.08"/>
<text x="52" y="311.0" text-anchor="end" fill="currentColor">0.78</text>
<line x1="60" y1="210.0" x2="800" y2="210.0" stroke="currentColor" stroke-opacity="0.08"/>
<text x="52" y="214.0" text-anchor="end" fill="currentColor">1.55</text>
<line x1="60" y1="113.0" x2="800" y2="113.0" stroke="currentColor" stroke-opacity="0.08"/>
<text x="52" y="117.0" text-anchor="end" fill="currentColor">2.33</text>
<line x1="60" y1="16.0" x2="800" y2="16.0" stroke="currentColor" stroke-opacity="0.08"/>
<text x="52" y="20.0" text-anchor="end" fill="currentColor">3.10</text>
<text x="60" y="426" fill="currentColor">0</text>
<text x="800" y="426" text-anchor="end" fill="currentColor">100 evals</text>
<polyline points="60.0,16.0 67.4,16.0 74.8,60.7 82.2,60.7 89.6,60.7 97.0,60.7 104.4,60.7 111.8,258.7 119.2,287.7 126.6,287.7 134.0,287.7 141.4,287.7 148.8,287.7 156.2,287.7 163.6,287.7 171.0,287.7 178.4,287.7 185.8,287.7 193.2,287.7 200.6,287.7 208.0,287.7 215.4,287.7 222.8,287.7 230.2,290.0 237.6,290.0 245.0,290.0 252.4,296.1 259.8,296.1 267.2,296.1 274.6,296.1 282.0,375.6 289.4,380.3 296.8,389.6 304.2,389.6 311.6,389.6 319.0,389.6 326.4,395.3 333.8,395.3 341.2,395.3 348.6,395.3 356.0,395.3 363.4,395.3 370.8,395.3 378.2,395.3 385.6,395.3 393.0,399.3 400.4,399.3 407.8,399.3 415.2,399.3 422.6,400.9 430.0,400.9 437.4,400.9 444.8,400.9 452.2,400.9 459.6,400.9 467.0,402.8 474.4,402.8 481.8,403.8 489.2,403.8 496.6,403.8 504.0,403.8 511.4,403.8 518.8,403.8 526.2,403.8 533.6,403.8 541.0,403.8 548.4,403.8 555.8,403.8 563.2,403.8 570.6,403.8 578.0,403.8 585.4,403.8 592.8,403.8 600.2,403.8 607.6,403.8 615.0,403.8 622.4,403.8 629.8,403.8 637.2,403.8 644.6,403.8 652.0,403.8 659.4,403.8 666.8,403.8 674.2,403.8 681.6,403.8 689.0,403.8 696.4,403.8 703.8,403.8 711.2,403.8 718.6,403.8 726.0,403.8 733.4,403.8 740.8,403.8 748.2,403.8 755.6,403.8 763.0,403.8 770.4,403.8 777.8,403.8 785.2,403.8 792.6,403.8 800.0,404.0" fill="none" stroke="#4C78A8" stroke-width="2"/>
<circle cx="800.0" cy="404.0" r="4" fill="#4C78A8" stroke="currentColor" stroke-width="1" stroke-opacity="0.4"/>
<polyline points="60.0,16.0 67.4,16.0 74.8,60.7 82.2,60.7 89.6,60.7 97.0,60.7 104.4,60.7 111.8,258.7 119.2,258.7 126.6,258.7 134.0,258.7 141.4,258.7 148.8,258.7 156.2,258.7 163.6,258.7 171.0,258.7 178.4,258.7 185.8,258.7 193.2,258.7 200.6,258.7 208.0,258.7 215.4,291.9 222.8,291.9 230.2,291.9 237.6,313.9 245.0,313.9 252.4,338.9 259.8,338.9 267.2,351.2 274.6,351.2 282.0,356.5 289.4,367.9 296.8,367.9 304.2,377.8 311.6,385.7 319.0,387.3 326.4,387.3 333.8,396.0 341.2,396.0 348.6,396.1 356.0,396.3 363.4,398.5 370.8,401.7 378.2,401.7 385.6,401.7 393.0,402.3 400.4,402.3 407.8,402.3 415.2,402.9 422.6,402.9 430.0,403.2 437.4,403.2 444.8,403.2 452.2,403.2 459.6,403.2 467.0,403.2 474.4,403.2 481.8,403.2 489.2,403.2 496.6,403.2 504.0,403.6 511.4,403.6 518.8,403.6 526.2,403.6 533.6,403.7 541.0,403.7 548.4,403.7 555.8,403.7 563.2,403.7 570.6,403.7 578.0,403.7 585.4,403.7 592.8,403.7 600.2,403.7 607.6,403.7 615.0,403.7 622.4,403.7 629.8,403.7 637.2,403.7 644.6,403.7 652.0,403.7 659.4,403.7 666.8,403.7 674.2,403.7 681.6,403.7 689.0,403.7 696.4,403.7 703.8,403.7 711.2,403.7 718.6,403.7 726.0,403.7 733.4,403.7 740.8,403.7 748.2,403.7 755.6,403.7 763.0,403.7 770.4,403.7 777.8,403.7 785.2,403.7 792.6,403.7 800.0,403.7" fill="none" stroke="#F58518" stroke-width="2"/>
<circle cx="533.6" cy="403.7" r="4" fill="#F58518" stroke="currentColor" stroke-width="1" stroke-opacity="0.4"/>
<polyline points="60.0,16.0 67.4,16.0 74.8,60.7 82.2,60.7 89.6,60.7 97.0,60.7 104.4,60.7 111.8,258.7 119.2,258.7 126.6,258.7 134.0,258.7 141.4,258.7 148.8,258.7 156.2,258.7 163.6,258.7 171.0,258.7 178.4,258.7 185.8,258.7 193.2,258.7 200.6,258.7 208.0,260.0 215.4,260.0 222.8,260.0 230.2,260.0 237.6,262.4 245.0,264.3 252.4,265.6 259.8,266.3 267.2,266.3 274.6,266.3 282.0,266.4 289.4,266.4 296.8,266.4 304.2,266.4 311.6,266.4 319.0,266.4 326.4,266.4 333.8,266.4 341.2,266.4 348.6,266.4 356.0,266.4 363.4,300.0 370.8,301.3 378.2,301.3 385.6,303.0 393.0,303.0 400.4,303.0 407.8,303.0 415.2,303.0 422.6,303.0 430.0,303.0 437.4,303.0 444.8,303.0 452.2,303.0 459.6,303.0 467.0,303.0 474.4,303.0 481.8,303.0 489.2,303.0 496.6,303.0 504.0,303.0 511.4,303.0 518.8,303.0 526.2,303.0 533.6,303.0 541.0,303.0 548.4,303.0 555.8,303.0 563.2,303.0 570.6,303.0 578.0,303.0 585.4,303.0 592.8,303.0 600.2,303.0 607.6,303.0 615.0,303.0 622.4,303.0 629.8,303.0 637.2,303.0 644.6,303.0 652.0,303.0 659.4,303.0 666.8,303.0 674.2,303.0 681.6,303.0 689.0,303.0 696.4,303.0 703.8,303.0 711.2,303.0 718.6,303.0 726.0,303.0 733.4,303.0 740.8,303.0 748.2,303.0 755.6,303.0 763.0,303.0 770.4,303.0 777.8,303.0 785.2,303.0 792.6,303.0 800.0,303.0" fill="none" stroke="#54A24B" stroke-width="2"/>
<circle cx="555.8" cy="303.0" r="4" fill="#54A24B" stroke="currentColor" stroke-width="1" stroke-opacity="0.4"/>
<polyline points="60.0,16.0 67.4,16.0 74.8,60.7 82.2,60.7 89.6,60.7 97.0,60.7 104.4,60.7 111.8,258.7 119.2,258.7 126.6,279.6 134.0,279.6 141.4,282.3 148.8,282.3 156.2,282.3 163.6,282.3 171.0,282.3 178.4,282.3 185.8,312.1 193.2,336.3 200.6,355.6 208.0,367.3 215.4,367.3 222.8,367.8 230.2,367.8 237.6,367.8 245.0,367.8 252.4,367.8 259.8,400.6 267.2,400.6 274.6,400.6 282.0,400.6 289.4,400.6 296.8,400.6 304.2,400.6 311.6,401.5 319.0,401.5 326.4,401.5 333.8,401.5 341.2,401.5 348.6,401.5 356.0,401.5 363.4,401.5 370.8,402.4 378.2,402.5 385.6,402.5 393.0,402.5 400.4,402.6 407.8,402.6 415.2,402.6 422.6,402.6 430.0,402.6 437.4,402.6 444.8,402.6 452.2,402.6 459.6,402.6 467.0,402.8 474.4,402.8 481.8,402.8 489.2,403.6 496.6,403.6 504.0,403.6 511.4,403.7 518.8,403.7 526.2,403.7 533.6,403.7 541.0,403.7 548.4,403.8 555.8,403.8 563.2,403.8 570.6,403.9 578.0,403.9 585.4,403.9 592.8,403.9 600.2,403.9 607.6,404.0 615.0,404.0 622.4,404.0 629.8,404.0 637.2,404.0 644.6,404.0 652.0,404.0 659.4,404.0 666.8,404.0 674.2,404.0 681.6,404.0 689.0,404.0 696.4,404.0 703.8,404.0 711.2,404.0 718.6,404.0 726.0,404.0 733.4,404.0 740.8,404.0 748.2,404.0 755.6,404.0 763.0,404.0 770.4,404.0 777.8,404.0 785.2,404.0 792.6,404.0 800.0,404.0" fill="none" stroke="#B279A2" stroke-width="2"/>
<circle cx="800.0" cy="404.0" r="4" fill="#B279A2" stroke="currentColor" stroke-width="1" stroke-opacity="0.4"/>
<polyline points="60.0,16.0 67.4,16.0 74.8,60.7 82.2,60.7 89.6,60.7 97.0,60.7 104.4,60.7 111.8,258.7 119.2,258.7 126.6,258.7 134.0,258.7 141.4,258.7 148.8,258.7 156.2,258.7 163.6,258.7 171.0,272.5 178.4,272.5 185.8,272.5 193.2,272.5 200.6,272.5 208.0,279.0 215.4,279.0 222.8,327.2 230.2,337.9 237.6,337.9 245.0,352.7 252.4,352.7 259.8,361.5 267.2,371.6 274.6,389.3 282.0,398.2 289.4,398.2 296.8,398.2 304.2,399.3 311.6,399.3 319.0,399.3 326.4,399.3 333.8,400.6 341.2,400.6 348.6,402.5 356.0,402.5 363.4,402.5 370.8,402.5 378.2,402.5 385.6,402.7 393.0,402.7 400.4,402.7 407.8,402.7 415.2,402.9 422.6,402.9 430.0,402.9 437.4,402.9 444.8,402.9 452.2,402.9 459.6,403.0 467.0,403.0 474.4,403.4 481.8,403.4 489.2,403.4 496.6,403.4 504.0,403.4 511.4,403.4 518.8,403.4 526.2,403.4 533.6,403.4 541.0,403.8 548.4,403.8 555.8,403.8 563.2,403.8 570.6,403.8 578.0,403.8 585.4,403.8 592.8,403.8 600.2,403.8 607.6,403.8 615.0,403.8 622.4,403.8 629.8,403.8 637.2,403.8 644.6,403.8 652.0,403.8 659.4,403.8 666.8,403.8 674.2,403.8 681.6,403.8 689.0,403.8 696.4,403.8 703.8,403.8 711.2,403.8 718.6,403.8 726.0,403.8 733.4,403.8 740.8,403.8 748.2,403.8 755.6,403.8 763.0,403.8 770.4,403.9 777.8,403.9 785.2,403.9 792.6,403.9 800.0,403.9" fill="none" stroke="#E45756" stroke-width="2"/>
<circle cx="800.0" cy="403.9" r="4" fill="#E45756" stroke="currentColor" stroke-width="1" stroke-opacity="0.4"/>
<polyline points="60.0,16.0 67.4,16.0 74.8,60.7 82.2,60.7 89.6,60.7 97.0,60.7 104.4,60.7 111.8,258.7 119.2,258.7 126.6,258.7 134.0,258.7 141.4,258.7 148.8,258.7 156.2,258.7 163.6,258.7 171.0,258.7 178.4,258.7 185.8,258.7 193.2,258.7 200.6,258.7 208.0,258.7 215.4,258.7 222.8,283.7 230.2,283.7 237.6,283.7 245.0,299.9 252.4,307.0 259.8,307.0 267.2,307.0 274.6,307.0 282.0,307.0 289.4,307.0 296.8,310.3 304.2,310.3 311.6,310.3 319.0,310.3 326.4,310.3 333.8,310.3 341.2,310.3 348.6,310.3 356.0,311.3 363.4,311.3 370.8,311.3 378.2,311.3 385.6,311.3 393.0,311.3 400.4,311.3 407.8,311.3 415.2,311.3 422.6,311.3 430.0,314.0 437.4,314.0 444.8,314.0 452.2,314.0 459.6,314.3 467.0,314.3 474.4,314.3 481.8,314.3 489.2,314.3 496.6,314.3 504.0,320.9 511.4,325.9 518.8,329.6 526.2,329.6 533.6,339.8 541.0,350.2 548.4,350.2 555.8,365.0 563.2,380.5 570.6,380.5 578.0,382.7 585.4,382.7 592.8,391.1 600.2,394.7 607.6,394.7 615.0,396.2 622.4,397.0 629.8,398.7 637.2,398.7 644.6,399.3 652.0,401.0 659.4,401.0 666.8,401.5 674.2,401.5 681.6,401.5 689.0,401.5 696.4,401.5 703.8,401.5 711.2,401.5 718.6,401.5 726.0,401.5 733.4,401.5 740.8,401.5 748.2,401.5 755.6,401.5 763.0,401.5 770.4,401.5 777.8,401.5 785.2,401.5 792.6,401.5 800.0,401.5" fill="none" stroke="#72B7B2" stroke-width="2"/>
<circle cx="800.0" cy="401.5" r="4" fill="#72B7B2" stroke="currentColor" stroke-width="1" stroke-opacity="0.4"/>
<rect x="490.0" y="20.0" width="306" height="120" rx="4" fill="currentColor" fill-opacity="0.10" stroke="currentColor" stroke-opacity="0.20"/>
<circle cx="496.0" cy="35.0" r="4" fill="#4C78A8"/>
<text x="506.0" y="39.0" fill="currentColor">cake (best 0.0003)</text>
<circle cx="496.0" cy="53.0" r="4" fill="#F58518"/>
<text x="506.0" y="57.0" fill="currentColor">sara-lenz (best 0.0022, 64 evals)</text>
<circle cx="496.0" cy="71.0" r="4" fill="#54A24B"/>
<text x="506.0" y="75.0" fill="currentColor">sara-lenz-cake (best 0.8080, 67 evals)</text>
<circle cx="496.0" cy="89.0" r="4" fill="#B279A2"/>
<text x="506.0" y="93.0" fill="currentColor">sara-only (best 0.0002)</text>
<circle cx="496.0" cy="107.0" r="4" fill="#E45756"/>
<text x="506.0" y="111.0" fill="currentColor">turbo (best 0.0009)</text>
<circle cx="496.0" cy="125.0" r="4" fill="#72B7B2"/>
<text x="506.0" y="129.0" fill="currentColor">vanilla (best 0.0204)</text>
</svg>
